*******************************************************************************
                    In the Devil's Courthouse (2011) WEBRip
*******************************************************************************

-------------------------------------------------------------------------------
                              General Information
-------------------------------------------------------------------------------
Type.................: Movie



Video Format.........: AVI
Video Bitrate........: 1472
Resolution...........: 640 x 360
Color................: 8 bit
FPS..................: 24.000 (same as original)
Source...............: WEB 16:9
Original Format......: NTSC
Genre................: Horror
IMDb Rating..........: 6.7
Movie Information....: http://www.imdb.com/title/tt1745912/

-------------------------------------------------------------------------------
                               Post Information
-------------------------------------------------------------------------------
Posted by............: Radioresearch
Posted on............: 4/7/2013

-------------------------------------------------------------------------------
                                 Release Notes
-------------------------------------------------------------------------------
SEEDBOX SUPPORTED!!

In The Devil's Courthouse. Pray... you're not judged. Siblings, Leah and Steve, 
are forced to confront their strained relationship with each other as they and a 
small group of friends and strangers struggle to survive against a ravenous 
creature from Cherokee myth in the Appalachian Mountains.

Another decently done, low-budget indie horror.  The effects were not too 
shabby, although I have to say I think they could have done better with their 
chosen frame rate and encoding.  The source didn't leave much room for 
improvement, unfortunately.

Enjoy!

RadioResearch

General
Complete name                            : G:In the Devil's Courthouse (2011) 
WEBRipIn The Devil's Courthouse.avi
Format                                   : AVI
Format/Info                              : Audio Video Interleave
File size                                : 896 MiB
Duration                                 : 1h 25mn
Overall bit rate                         : 1 472 Kbps

Video
ID                                       : 0
Format                                   : MPEG-4 Visual
Format profile                           : Simple@L3
Format settings, BVOP                    : No
Format settings, QPel                    : No
Format settings, GMC                     : No warppoints
Format settings, Matrix                  : Default (H.263)
Codec ID                                 : XVID
Codec ID/Hint                            : XviD
Duration                                 : 1h 25mn
Bit rate                                 : 1 331 Kbps
Width                                    : 640 pixels
Height                                   : 360 pixels
Display aspect ratio                     : 16:9
Frame rate                               : 24.000 fps
Color space                              : YUV
Chroma subsampling                       : 4:2:0
Bit depth                                : 8 bits
Scan type                                : Progressive
Compression mode                         : Lossy
Bits/(Pixel*Frame)                       : 0.241
Stream size                              : 810 MiB (90%)
Writing library                          : XviD 1.2.1 (UTC 2008-12-04)

Audio
ID                                       : 1
Format                                   : MPEG Audio
Format version                           : Version 1
Format profile                           : Layer 3
Mode                                     : Joint stereo
Mode extension                           : MS Stereo
Codec ID                                 : 55
Codec ID/Hint                            : MP3
Duration                                 : 1h 25mn
Bit rate mode                            : Constant
Bit rate                                 : 128 Kbps
Channel(s)                               : 2 channels
Sampling rate                            : 44.1 KHz
Compression mode                         : Lossy
Stream size                              : 77.9 MiB (9%)
Alignment                                : Aligned on interleaves
Interleave, duration                     : 26 ms (0.63 video frame)
Writing library                          : LAME3.98.2




-------------------------------------------------------------------------------
Generated with Cool NFO Creator - http://fly.to/coolbeans
-------------------------------------------------------------------------------
